<?xml version="1.0" encoding="UTF-8"?>
<svg width="50px" height="50px" viewBox="0 0 50 50" version="1.1" 
    xmlns="http://www.w3.org/2000/svg" 
    xmlns:xlink="http://www.w3.org/1999/xlink">
    <!-- Generator: Sketch 63.1 (92452) - https://sketch.com -->
    <title>back</title>
    <desc>Created with Sketch.</desc>
    <g id="back" stroke="none" stroke-width="1" fill="none" fill-rule="evenodd">
        <g id="Arrow-Blazing--Right" transform="translate(10.000000, 11.000000)" fill="currentColor" fill-rule="nonzero">
            <g transform="translate(15.000000, 14.000000) scale(-1, 1) rotate(-90.000000) translate(-15.000000, -14.000000) translate(1.000000, -1.000000)" id="Rectangle">
                <path d="M1.06332797,19.0517114 L16.2238592,19.1943285 C17.2224458,19.2037223 18.0282585,20.0135654 18.0326883,21.0121864 C18.0370735,22.0088855 17.2364545,22.8224174 16.2398125,22.8339605 L1.06328233,23.0097355 C-0.0284948785,23.0223804 -0.923805967,22.1475709 -0.936583541,21.0557937 C-0.936583541,21.0481621 -0.936583541,21.0405301 -0.936583541,21.0328979 C-0.936583541,19.9386704 -0.0495368521,19.0516237 1.04469069,19.0516237 C1.05090322,19.0516237 1.05711571,19.0516237 1.06332797,19.0517114 Z" transform="translate(8.548052, 21.030747) rotate(45.000000) translate(-8.548052, -21.030747) "></path>
                <path d="M12.2046173,18.880654 L27.0845335,19.253902 C28.0502135,19.2781251 28.8293378,20.0514418 28.8607853,21.0169135 C28.8908831,21.9409505 28.1662022,22.7144298 27.2421651,22.7445276 C27.2267992,22.7450281 27.2114271,22.7453169 27.1960532,22.7453939 L12.2052211,22.8205093 C11.1061844,22.8259889 10.2107763,21.9395064 10.2052462,20.8404696 C10.2052462,20.837147 10.2052462,20.8338244 10.2052462,20.8305017 C10.2052462,19.7532918 11.0784973,18.8800406 12.1557073,18.8800406 C12.1720125,18.8800406 12.1883171,18.8802451 12.2046173,18.880654 Z" transform="translate(19.533468, 20.850275) scale(-1, 1) rotate(45.000000) translate(-19.533468, -20.850275) "></path>
                <path d="M3.99999975,10.0002342 L23.9999998,10.0025739 C25.1046071,10.0027031 25.9999998,10.8982005 25.9999998,12.0028078 C25.9999998,13.1072481 25.104674,14.0025739 24.0002337,14.0025739 C24.0001558,14.0025739 24.0000777,14.0025739 23.9999998,14.0025739 L3.99999975,14.0002342 C2.8953924,14.000105 1.99999975,13.1046076 1.99999975,12.0000003 C1.99999975,10.89556 2.89532551,10.0002342 3.9997658,10.0002342 C3.99984378,10.0002342 3.99992176,10.0002342 3.99999975,10.0002342 Z" transform="translate(14.000000, 12.001404) scale(-1, 1) rotate(90.000000) translate(-14.000000, -12.001404) "></path>
            </g>
        </g>
    </g>
</svg>
