<?xml version="1.0" encoding="UTF-8"?>
<svg width="50px" height="50px" viewBox="0 0 50 50" version="1.1" 
    xmlns="http://www.w3.org/2000/svg" 
    xmlns:xlink="http://www.w3.org/1999/xlink">
    <!-- Generator: Sketch 63.1 (92452) - https://sketch.com -->
    <title>chart</title>
    <desc>Created with Sketch.</desc>
    <g id="chart" stroke="none" stroke-width="1" fill="none" fill-rule="evenodd">
        <g id="Chart-Copy" transform="translate(-7.000000, -7.000000)" stroke="currentColor" stroke-width="4">
            <g id="Chart" transform="translate(32.000000, 32.000000) rotate(45.000000) translate(-32.000000, -32.000000) translate(11.000000, 9.000000)">
                <g id="Group-12" transform="translate(9.525126, 0.882991)">
                    <path d="M0.1626896,2.74924892 L10.4649294,14.2986162 L20.9780994,2.90290468 C17.8362005,1.01925589 14.2181623,0 10.44,0 C6.7669559,0 3.24467143,0.96311569 0.1626896,2.74924892 Z" id="Combined-Shape"></path>
                </g>
                <g id="Group-12" transform="translate(0.025126, 9.060660)">
                    <path d="M6.89884948,0.75148503 C2.55872439,4.5358591 0,9.9768448 0,15.8378378 C0,26.966263 9.1714464,36 20.5,36 C31.8285536,36 41,26.966263 41,15.8378378 C41,10.0830191 38.5338303,4.73107959 34.3288386,0.95322771 L20.475147,15.8638004 L6.89884948,0.75148503 Z" id="Combined-Shape"></path>
                </g>
            </g>
        </g>
    </g>
</svg>
