<?xml version="1.0" encoding="UTF-8"?>
<svg width="50px" height="50px" viewBox="0 0 50 50" version="1.1" 
    xmlns="http://www.w3.org/2000/svg" 
    xmlns:xlink="http://www.w3.org/1999/xlink">
    <!-- Generator: Sketch 63.1 (92452) - https://sketch.com -->
    <title>tick</title>
    <desc>Created with Sketch.</desc>
    <g id="tick" stroke="none" stroke-width="1" fill="none" fill-rule="evenodd">
        <g id="Tick" transform="translate(5.000000, 11.000000)" fill="currentColor" fill-rule="nonzero">
            <path d="M25.5601001,-2.9916291 C26.642797,-2.99774093 27.525477,-2.12502242 27.5316527,-1.04232549 C27.5316527,-1.03766365 27.5316527,-1.03300174 27.5316527,-1.02833983 L27.4862768,30.064754 C27.4846822,31.1574901 26.6016834,32.044219 25.5089637,32.0504522 C24.4262668,32.056564 23.5435868,31.1838455 23.5374111,30.1011486 C23.5374111,30.0964868 23.5374111,30.0918248 23.5374111,30.0871629 L23.582787,-1.00593087 C23.5843816,-2.09866696 24.4673804,-2.98539591 25.5601001,-2.9916291 Z" id="Rectangle" transform="translate(25.534532, 14.529412) rotate(45.000000) translate(-25.534532, -14.529412) "></path>
            <path d="M8.87841476,10.8286972 L8.88686519,10.8286972 C9.98674699,10.8349486 10.8752326,11.7281028 10.875641,12.8280018 L10.8811855,27.7601588 C10.8815923,28.8562281 9.99338243,29.7450978 8.89731305,29.7455049 C8.89335485,29.7455049 8.88939666,29.7455049 8.88543852,29.7455049 L8.87698809,29.7455049 C7.77710629,29.7392536 6.88862063,28.8460994 6.88821224,27.7462004 L6.88266781,12.8140435 C6.88226098,11.7179741 7.77047085,10.8291044 8.86654023,10.8286972 C8.87049843,10.8286972 8.87445662,10.8286972 8.87841476,10.8286972 Z" id="Rectangle" transform="translate(8.881927, 20.287101) rotate(-45.000000) translate(-8.881927, -20.287101) "></path>
        </g>
    </g>
</svg>
